# xmcd
#
# Track frame offsets:
#	182
#	22467
#	34107
#	46655
#	59655
#	72500
#	88275
#	99480
#	109965
#	120130
#	132090
#	153445
#	166990
#	184630
#	194940
#	209555
#	221635
#	238490
#	250810
#	263947
#	274657
#	287750
#	299500
#	313262
#	326947
#
# Disc length: 4502 seconds
#
# Revision: 4
# Processed by: cddbd v1.4PL0 Copyright (c) Steve Scherf et al.
# Submitted via: MusicWizard 6.0.2
#
DISCID=9c119419
DTITLE=Various Artist - 100 Soul Hits  Vol. 3
DYEAR=1991
DGENRE=Soul
TTITLE0=James Brown - It's Too Funky In Here
TTITLE1=Brook Benton - Kiddio
TTITLE2=Archie Bell and The Drells - Tighten Up
TTITLE3=Same and Dave - I Thank You
TTITLE4=Dobie Gray - Lovin' Arms
TTITLE5=Ben E. King - Supernatural Thing
TTITLE6=Ramsey Lewis - Dancing In The Street
TTITLE7=The Drifters - There Goes My Baby
TTITLE8=Gladys Knight and The Pips - Operator
TTITLE9=The Drells - I Wanna Go Home
TTITLE10=James Brown - Try Me
TTITLE11=Ramsey Lewis - Up Tight
TTITLE12=Gladys Knight and The Pips - So Sad The Song
TTITLE13=Brook Benton - Fools Rush In
TTITLE14=The Moments - Girls
TTITLE15=The Drifters - This MAgic Moment
TTITLE16=Percy Sledge - Behind Closed Doors
TTITLE17=The Impressions - Listen
TTITLE18=Ramsey Lewis - A Hard Days Night
TTITLE19=Gene Chandler - Duke Of Earl
TTITLE20=Sam and Dave - You Got Me Hummin'
TTITLE21=Brook Benton - Think Twice
TTITLE22=Ramsey Lewis - Since You've Been Gone
TTITLE23=James Brown - Cold Sweat/I Can't Stand Myself
TTITLE24=Ben E. King - I Who Have Nothing
EXTD=
EXTT0=
EXTT1=
EXTT2=
EXTT3=
EXTT4=
EXTT5=
EXTT6=
EXTT7=
EXTT8=
EXTT9=
EXTT10=
EXTT11=
EXTT12=
EXTT13=
EXTT14=
EXTT15=
EXTT16=
EXTT17=
EXTT18=
EXTT19=
EXTT20=
EXTT21=
EXTT22=
EXTT23=
EXTT24=
PLAYORDER=
